# xmcd
#
# Track frame offsets:
#	182
#	9157
#	20197
#	29302
#	41657
#	53687
#	66012
#	78197
#	87772
#	97857
#	108920
#	118665
#	131117
#	141187
#
# Disc length: 2046 seconds
#
# Revision: 0
# Processed by: cddbd v1.4PL0 Copyright (c) Steve Scherf et al.
# Submitted via: dBpowerAMP V4.0
#
DISCID=ab07fc0e
DTITLE=Sam Cook - The Best Of
DYEAR=1900
DGENRE=Oldie
TTITLE0=Ain't Misbehavin'
TTITLE1=All Of My Life
TTITLE2=Around The World
TTITLE3=Danny Boy
TTITLE4=Everybody Like To Cha Cha
TTITLE5=Moonlight In Vermont
TTITLE6=Ol' Man River
TTITLE7=Only Sixteen
TTITLE8=Steal Away
TTITLE9=Summertime
TTITLE10=Wonderful World
TTITLE11=You Send Me
TTITLE12=Stealin' Kisses
TTITLE13=When I Fall In Love
EXTD=
EXTT0=
EXTT1=
EXTT2=
EXTT3=
EXTT4=
EXTT5=
EXTT6=
EXTT7=
EXTT8=
EXTT9=
EXTT10=
EXTT11=
EXTT12=
EXTT13=
PLAYORDER=
